<?xml version="1.0" encoding="UTF-8" standalone="no"?>
<!-- Created with Inkscape (http://www.inkscape.org/) -->

<svg
   version="1.1"
   id="svg1"
   width="64"
   height="64"
   viewBox="0 0 64 64"
   sodipodi:docname="olist.svg"
   inkscape:version="1.3.2 (091e20e, 2023-11-25, custom)"
   xmlns:inkscape="http://www.inkscape.org/namespaces/inkscape"
   xmlns:sodipodi="http://sodipodi.sourceforge.net/DTD/sodipodi-0.dtd"
   xmlns="http://www.w3.org/2000/svg"
   xmlns:svg="http://www.w3.org/2000/svg">
  <defs
     id="defs1" />
  <sodipodi:namedview
     id="namedview1"
     pagecolor="#ffffff"
     bordercolor="#000000"
     borderopacity="0.25"
     inkscape:showpageshadow="2"
     inkscape:pageopacity="0.0"
     inkscape:pagecheckerboard="0"
     inkscape:deskcolor="#d1d1d1"
     inkscape:zoom="8.5"
     inkscape:cx="5.1764706"
     inkscape:cy="32.470588"
     inkscape:window-width="1440"
     inkscape:window-height="740"
     inkscape:window-x="-6"
     inkscape:window-y="-6"
     inkscape:window-maximized="1"
     inkscape:current-layer="g1"
     showguides="true">
    <sodipodi:guide
       position="-12.941176,64"
       orientation="0,-1"
       id="guide3"
       inkscape:locked="false" />
    <sodipodi:guide
       position="-3.2941176,3.37687e-08"
       orientation="0,-1"
       id="guide4"
       inkscape:locked="false" />
    <sodipodi:guide
       position="-9.1764706,42.588235"
       orientation="0,-1"
       id="guide5"
       inkscape:locked="false" />
    <sodipodi:guide
       position="-7.6470588,21.764706"
       orientation="0,-1"
       id="guide6"
       inkscape:locked="false" />
    <sodipodi:guide
       position="0.11764706,53.647059"
       orientation="0,-1"
       id="guide7"
       inkscape:locked="false" />
    <sodipodi:guide
       position="-1.6470588,31.764706"
       orientation="0,-1"
       id="guide8"
       inkscape:locked="false" />
    <sodipodi:guide
       position="9.5294118,10.235294"
       orientation="0,-1"
       id="guide9"
       inkscape:locked="false" />
    <sodipodi:guide
       position="32,45.647059"
       orientation="1,0"
       id="guide10"
       inkscape:locked="false" />
    <sodipodi:guide
       position="16.637807,25.566667"
       orientation="1,0"
       id="guide11"
       inkscape:locked="false" />
  </sodipodi:namedview>
  <g
     inkscape:groupmode="layer"
     inkscape:label="Image"
     id="g1">
    <path
       style="fill:#000000;stroke-width:0.566836"
       d="M 18.928192,21.065175 C 18.75396,20.896928 18.063377,20.090314 17.393567,19.272703 14.629585,15.898821 13.627461,15.069875 10.261399,13.373055 8.8624595,12.667852 8.0961326,12.399314 6.9104759,12.198818 5.2399051,11.916322 4.144466,11.480334 4.0466122,11.058993 3.9506863,10.645988 5.5132128,9.9823483 7.3049855,9.6750841 8.4869986,9.4723867 9.3805859,9.1694413 10.845836,8.4746616 12.93404,7.4844947 13.746081,6.8270782 15.47217,4.729249 15.991714,4.0978141 17.000938,2.9308128 17.714893,2.1359136 L 19.01299,0.69064125 h 2.158252 2.158252 l 0.0279,1.11492355 c 0.01529,0.6132092 0.08259,2.6758175 0.149391,4.5835755 l 0.121492,3.4686525 0.909546,0.4906012 c 3.15064,0.07544 3.206471,1.190459 0.06602,1.21037 -0.731208,0.0047 -0.873908,0.417588 -1.068637,0.578673 -0.121402,3.407101 -0.181497,4.618865 -0.186012,5.442238 l -0.0197,3.59253 h -1.16734 c -0.642047,0 -1.561061,0.04475 -2.042257,0.09943 -0.702552,0.07984 -0.937309,0.03918 -1.191691,-0.206466 z"
       id="path1"
       sodipodi:nodetypes="ssssssssscccssccscscssss" />
    <rect
       style="fill:#000000;fill-opacity:0.755814;stroke-width:0.349646;stroke-opacity:0.454936"
       id="rect1"
       width="0.62521553"
       height="3.8850121"
       x="25.229464"
       y="9.0738688" />
    <path
       style="fill:#000000;stroke-width:0.278546"
       d="M 18.12072,34.882209 C 17.794757,34.724104 17.216475,34.450891 16.835648,34.275071 16.454823,34.09925 15.847166,33.817705 15.485301,33.649414 l -0.657936,-0.305982 h -3.711774 c -3.9275912,0 -4.5170032,-0.03367 -5.5597672,-0.317651 -2.27658,-0.61998 -0.965817,-1.583848 2.365012,-1.739108 0.387628,-0.01807 2.1848102,-0.03547 3.9937382,-0.03868 l 3.28896,-0.0058 1.409555,-0.709339 c 1.868176,-0.940132 2.163798,-1.07264 2.264358,-1.014964 0.04669,0.02678 0.102425,0.426711 0.123845,0.888733 l 0.03895,0.840038 h 1.55651 1.55651 l 0.401413,-0.285816 c 0.220778,-0.157199 0.555239,-0.408307 0.743246,-0.558018 0.188008,-0.149711 0.399441,-0.294564 0.469852,-0.321895 0.07041,-0.02733 0.537671,-0.05016 1.038356,-0.05073 l 0.910337,-10e-4 v 0.817538 0.817537 l 0.354163,0.07698 c 0.419956,0.09128 0.619382,0.408151 0.508398,0.807808 -0.0592,0.213175 -0.142041,0.275977 -0.467258,0.354223 l -0.395303,0.09511 v 0.713656 0.713656 h -0.98052 -0.980521 l -0.696214,-0.524199 -0.696214,-0.524199 -1.670957,-0.01877 -1.670958,-0.01877 -0.0016,0.76279 c -0.0016,0.755388 -0.06722,1.067166 -0.224665,1.067166 -0.04478,0 -0.348114,-0.129359 -0.674078,-0.287464 z"
       id="path1-0" />
    <path
       style="fill:#000000;stroke-width:0.537704"
       d="m 19.590321,63.807546 c 0,-0.210837 0.382781,-0.404154 0.80026,-0.404154 0.251768,0 0.123146,-0.268356 -0.666539,-1.390666 -2.575321,-3.66008 -3.610601,-5.052978 -3.904196,-5.252835 -0.175863,-0.119708 -0.701764,-0.278007 -1.168667,-0.351764 -0.466904,-0.07376 -1.265655,-0.268368 -1.775005,-0.43247 -0.509349,-0.164102 -1.75957,-0.351077 -2.778268,-0.415501 L 8.217356,55.425397 C 8.211576,55.031136 8.214236,54.636891 8.216206,54.242612 L 6.6555879,54.123054 C 5.2056407,54.011973 3.0199851,53.592268 2.0729244,53.271038 1.6143742,53.115505 1.6164906,53.11261 2.3588839,52.880297 3.903445,52.39696 5.6643112,52.093197 6.9414132,52.089776 l 1.262808,0.0141 c 0.01223,-0.435617 0.00855,-0.871197 0.00578,-1.306925 l 1.8346238,-0.149179 c 1.047656,-0.08519 2.420229,-0.303028 3.049271,-0.50184 0.629044,-0.198814 1.414999,-0.361477 1.746564,-0.361477 0.331568,0 0.719839,-0.07782 0.862828,-0.172912 0.27139,-0.180502 4.851989,-6.432735 4.941843,-6.745309 0.02829,-0.09844 -0.197438,-0.178977 -0.501631,-0.178977 -0.304195,0 -0.553083,-0.08632 -0.553083,-0.191816 0,-0.119059 0.848916,-0.191816 2.23805,-0.191816 2.128883,0 2.426188,0.06946 2.093662,0.489131 -0.259433,0.327424 -1.68758,7.758962 -1.491069,7.758962 0.363428,0 1.30145,-0.720883 2.818759,-2.166258 0.853502,-0.813038 1.618877,-1.478248 1.700835,-1.478248 0.164606,0 0.820217,0.812515 0.820217,1.016514 0,0.07074 -0.202164,0.539922 -0.449256,1.042626 -0.24709,0.502706 -0.472825,1.129803 -0.501631,1.39355 -0.04692,0.429601 0.0079,0.48574 0.52643,0.539072 l 0.578806,0.05952 v 2.194305 2.194305 h -0.62033 c -0.597806,0 -0.616741,0.01916 -0.521423,0.527495 0.0544,0.290122 0.29882,0.92348 0.54316,1.407459 0.244337,0.483981 0.444248,0.965259 0.444248,1.069507 0,0.219525 -0.656173,1.023678 -0.835303,1.023678 -0.06646,0 -0.721824,-0.585949 -1.45636,-1.302111 -1.879624,-1.832602 -2.252549,-2.138736 -2.758573,-2.26451 l -0.445771,-0.110795 0.733363,3.708915 c 0.403348,2.039903 0.802381,3.850665 0.886739,4.023914 0.08436,0.173249 0.111165,0.367464 0.05957,0.431587 -0.150469,0.186996 -4.364115,0.134177 -4.364115,-0.05471 z"
       id="path1-3"
       sodipodi:nodetypes="sssssssccssssccsssssssssssssssscccssssssscsssss" />
    <rect
       style="fill:#000000;stroke-opacity:0.454936"
       id="rect2"
       width="26.287735"
       height="4.658586"
       x="32.062237"
       y="8.1490622" />
    <rect
       style="fill:#000000;stroke-opacity:0.454936"
       id="rect2-4"
       width="26.287735"
       height="4.658586"
       x="32.032307"
       y="29.759214" />
    <rect
       style="fill:#000000;stroke-opacity:0.454936"
       id="rect2-9"
       width="26.287735"
       height="4.658586"
       x="32.009796"
       y="51.370502" />
  </g>
</svg>
