<?xml version="1.0" encoding="UTF-8" standalone="no"?>
<!-- Created with Inkscape (http://www.inkscape.org/) -->

<svg
   version="1.1"
   id="svg1"
   width="48"
   height="48"
   viewBox="0 0 48 48"
   sodipodi:docname="ruler.svg"
   inkscape:version="1.3.2 (091e20e, 2023-11-25, custom)"
   xmlns:inkscape="http://www.inkscape.org/namespaces/inkscape"
   xmlns:sodipodi="http://sodipodi.sourceforge.net/DTD/sodipodi-0.dtd"
   xmlns="http://www.w3.org/2000/svg"
   xmlns:svg="http://www.w3.org/2000/svg">
  <defs
     id="defs1" />
  <sodipodi:namedview
     id="namedview1"
     pagecolor="#ffffff"
     bordercolor="#000000"
     borderopacity="0.25"
     inkscape:showpageshadow="2"
     inkscape:pageopacity="0.0"
     inkscape:pagecheckerboard="0"
     inkscape:deskcolor="#d1d1d1"
     showgrid="false"
     inkscape:zoom="11.333333"
     inkscape:cx="24"
     inkscape:cy="24"
     inkscape:window-width="1440"
     inkscape:window-height="740"
     inkscape:window-x="-6"
     inkscape:window-y="-6"
     inkscape:window-maximized="1"
     inkscape:current-layer="g1" />
  <g
     inkscape:groupmode="layer"
     inkscape:label="Image"
     id="g1">
    <path
       style="fill:#000000"
       d="m 6.2451575,41.748764 c -3.824543,-3.82832 -6.15692217,-6.401687 -6.15692217,-6.793073 0,-0.880197 34.15899267,-35.04392629 35.03906667,-35.04392629 0.758807,0 12.960934,12.05447729 12.960934,12.80410229 0,0.627373 -34.576648,35.195898 -35.204168,35.195898 -0.265093,0 -3.2526025,-2.773351 -6.6389105,-6.163001 z M 28.889448,28.540646 44.728236,12.689526 39.981844,8.0105157 l -4.746392,-4.679011 -1.794658,1.794659 -1.794659,1.794658 1.661051,1.756316 c 1.80676,1.9103833 1.928915,2.2482453 1.131454,3.1294303 -0.80423,0.888664 -1.275281,0.730308 -3.176625,-1.067903 l -1.747909,-1.6531013 -0.960278,0.9200053 -0.960278,0.920005 3.078993,3.090589 c 3.214448,3.226555 3.479718,3.805501 2.148098,4.688163 -0.676031,0.448106 -0.852214,0.330638 -3.949557,-2.633319 l -3.241961,-3.102347 -0.931753,0.892676 -0.931752,0.892676 0.881309,0.970922 c 0.48472,0.534007 1.205309,1.291625 1.601309,1.683596 0.793919,0.785842 0.926954,1.688281 0.336,2.279235 -0.729976,0.729976 -1.68221,0.377743 -3.301173,-1.221109 l -1.625299,-1.605109 -0.917864,0.958044 -0.917865,0.958044 1.653101,1.747909 c 1.798706,1.901867 1.920539,2.24031 1.123504,3.121024 -0.80423,0.888664 -1.275281,0.730308 -3.176625,-1.067903 l -1.747909,-1.653101 -0.953491,0.913502 -0.95349,0.913502 3.040555,3.094774 c 1.672306,1.702126 3.040556,3.283606 3.040556,3.514401 0,0.58932 -0.965709,1.590022 -1.534421,1.590022 -0.261375,0 -1.867876,-1.36825 -3.570002,-3.040556 l -3.094774,-3.040555 -0.924801,0.965284 -0.9248,0.965284 1.664399,1.685334 c 1.653589,1.674388 2.015957,2.625651 1.280399,3.361209 -0.69184,0.69184 -1.403314,0.407633 -3.044089,-1.216 -0.889291,-0.88 -1.7508315,-1.6 -1.9145335,-1.6 -0.163702,0 -0.684597,0.403896 -1.157544,0.897547 l -0.859904,0.897546 1.760035,1.66821 c 1.7563415,1.664708 2.1020065,2.466726 1.3760355,3.192697 -0.736241,0.736241 -1.6873975,0.372621 -3.3687545,-1.28785 l -1.692879,-1.67185 -1.1924479,1.192447 -1.1924479,1.192448 4.6311248,4.639403 c 2.5471195,2.551671 4.7055345,4.639402 4.7964775,4.639402 0.09094,0 7.292806,-7.133004 16.004139,-15.851119 z"
       id="path1" />
  </g>
</svg>
