<?xml version="1.0" encoding="UTF-8" standalone="no"?>
<!-- Created with Inkscape (http://www.inkscape.org/) -->

<svg
   version="1.1"
   id="svg1"
   width="48"
   height="48"
   viewBox="0 0 48 48"
   sodipodi:docname="settings.svg"
   xml:space="preserve"
   inkscape:version="1.3.2 (091e20e, 2023-11-25, custom)"
   xmlns:inkscape="http://www.inkscape.org/namespaces/inkscape"
   xmlns:sodipodi="http://sodipodi.sourceforge.net/DTD/sodipodi-0.dtd"
   xmlns="http://www.w3.org/2000/svg"
   xmlns:svg="http://www.w3.org/2000/svg"><defs
     id="defs1" /><sodipodi:namedview
     id="namedview1"
     pagecolor="#ffffff"
     bordercolor="#000000"
     borderopacity="0.25"
     inkscape:showpageshadow="2"
     inkscape:pageopacity="0.0"
     inkscape:pagecheckerboard="0"
     inkscape:deskcolor="#d1d1d1"
     inkscape:zoom="8.0138769"
     inkscape:cx="25.580628"
     inkscape:cy="19.715801"
     inkscape:window-width="1440"
     inkscape:window-height="740"
     inkscape:window-x="-6"
     inkscape:window-y="-6"
     inkscape:window-maximized="1"
     inkscape:current-layer="g1"
     showguides="false" /><g
     inkscape:groupmode="layer"
     inkscape:label="Image"
     id="g1"><path
       d="m 24.123047,15.285156 c -1.196485,-0.01812 -2.350466,0.167323 -3.3125,0.572266 -0.07485,0.03151 -0.334875,0.136375 -0.578125,0.234375 -4.68484,1.887316 -6.872075,7.311557 -4.755859,11.792969 0.939458,1.989456 2.730423,3.68404 4.755859,4.5 0.24325,0.098 0.503325,0.204828 0.578125,0.236328 0.31383,0.1321 0.99088,0.310397 1.53125,0.404297 0.31811,0.05526 0.639944,0.114259 0.714844,0.130859 0.365538,0.08089 2.4723,-0.0155 3.0625,-0.140625 8.132122,-1.724056 10.322489,-11.382314 3.638671,-16.041016 -1.52944,-1.066035 -3.640624,-1.659259 -5.634765,-1.689453 z m 0.05664,4.44336 c 0.65828,0 1.316234,0.07397 1.623047,0.222656 0.06145,0.02977 0.321687,0.149898 0.578125,0.267578 0.898308,0.4122 1.635761,1.106654 2.074219,1.951172 0.12517,0.24109 0.253456,0.485169 0.285156,0.542969 0.3163,0.576888 0.3163,2.475846 0,3.052734 -0.03167,0.05777 -0.159986,0.301909 -0.285156,0.542969 -0.434158,0.836158 -1.184451,1.536329 -2.099609,1.960937 -0.24325,0.11286 -0.491335,0.228513 -0.552735,0.257813 -0.06144,0.02932 -0.364305,0.0995 -0.671875,0.154297 -0.837498,0.149358 -2.018191,0.08004 -2.550781,-0.148438 -1.433856,-0.615138 -2.14178,-1.208039 -2.6875,-2.248047 -0.12,-0.22869 -0.244191,-0.461731 -0.275391,-0.519531 -0.315608,-0.584628 -0.315938,-2.476496 0,-3.052734 0.03167,-0.05777 0.159987,-0.301879 0.285157,-0.542969 0.438458,-0.844518 1.177864,-1.538972 2.076172,-1.951172 0.256438,-0.11768 0.514673,-0.237778 0.576171,-0.267578 0.306815,-0.148685 0.966722,-0.222656 1.625,-0.222656 z"
       style="stroke-width:0.0659746"
       id="path8" /><path
       d="m 21.621094,6.2324219 -0.28125,0.2089843 c -0.424288,0.3159094 -0.520728,0.6522698 -0.429688,1.4863282 0.25102,2.2995756 -0.07579,2.9962356 -1.685547,3.5898436 -1.720886,0.634598 -3.00763,1.330339 -4.154296,2.248047 C 13.940835,14.669583 12.792869,14.750208 11.726563,14 10.078865,12.840762 9.467529,12.683081 8.8378906,13.255859 8.643571,13.432629 6.6605933,16.59816 6.4335937,17.09375 c -0.2806094,0.612648 0.066232,1.201699 0.9316407,1.585937 0.2474294,0.10984 0.735292,0.3299 1.0839844,0.488282 1.4824768,0.673248 1.8517142,1.538074 1.4277343,3.34375 -0.0506,0.21558 -0.083984,0.883814 -0.083984,1.726562 0,0.842738 0.033384,1.512926 0.083984,1.728516 0.4239799,1.805666 0.054742,2.668537 -1.4277343,3.341797 -0.3487394,0.15837 -0.836555,0.378431 -1.0839844,0.488281 -0.8843979,0.39265 -1.2085982,0.961286 -0.9179688,1.615234 0.2082596,0.46859 2.2306723,3.679117 2.4199219,3.841797 0.6195384,0.53258 1.2371175,0.365946 2.8593755,-0.77539 1.066306,-0.75021 2.214272,-0.671537 3.34375,0.232421 1.120156,0.89649 2.4732,1.630072 4.154296,2.25 1.609706,0.59361 1.936567,1.29027 1.685547,3.589844 -0.0889,0.814178 0.0081,1.173678 0.398438,1.460938 0.366038,0.269622 0.253742,0.259173 2.941406,0.246093 l 2.486328,-0.01172 0.28125,-0.208985 c 0.424141,-0.315938 0.522671,-0.65236 0.431641,-1.486328 -0.25275,-2.315464 0.0248,-2.903199 1.707031,-3.605469 0.13664,-0.057 0.268509,-0.105468 0.292969,-0.105468 0.0493,0 0.500709,-0.184832 1.023437,-0.419922 0.958178,-0.43092 2.022742,-1.074701 2.78125,-1.681641 1.246838,-0.997688 2.259312,-1.026703 3.63086,-0.103515 2.125585,1.430736 2.220501,1.399867 3.867187,-1.279297 1.372368,-2.232846 1.389186,-2.272765 1.148438,-2.814453 -0.15017,-0.3379 -0.389862,-0.524264 -1.050782,-0.814454 -1.408036,-0.618238 -1.607441,-0.722799 -1.894531,-1.005859 -0.581883,-0.573698 -0.742814,-1.158052 -0.583984,-2.125 0.281145,-1.711346 0.282613,-3.001778 0.002,-4.708984 -0.16082,-0.978288 -0.0047,-1.550067 0.582031,-2.128907 0.28709,-0.283058 0.486495,-0.389574 1.894531,-1.007812 1.004468,-0.44103 1.371539,-1.007152 1.074219,-1.65625 -0.692178,-1.511186 -2.453004,-3.996561 -2.914062,-4.113281 -0.55004,-0.13924 -0.769423,-0.05112 -2.125,0.861328 -1.386528,0.933278 -2.361136,0.897755 -3.669922,-0.132813 -0.41368,-0.325748 -1.290634,-0.901603 -1.857422,-1.220703 -0.36081,-0.20313 -1.813753,-0.851562 -1.908203,-0.851562 -0.0245,0 -0.156329,-0.04651 -0.292969,-0.103516 -1.682199,-0.702268 -1.959781,-1.290003 -1.707031,-3.6054686 0.091,-0.8340584 -0.0071,-1.1704188 -0.431641,-1.4863282 l -0.28125,-0.2089843 h -2.556641 z m 2.501953,9.0527341 c 1.994141,0.03019 4.105325,0.623418 5.634765,1.689453 6.683818,4.658702 4.493451,14.31696 -3.638671,16.041016 -0.5902,0.125125 -2.696962,0.221515 -3.0625,0.140625 -0.0749,-0.0166 -0.396734,-0.0756 -0.714844,-0.130859 -0.54037,-0.0939 -1.21742,-0.272197 -1.53125,-0.404297 -0.0748,-0.0315 -0.334875,-0.138328 -0.578125,-0.236328 -2.025436,-0.81596 -3.816401,-2.510544 -4.755859,-4.5 -2.116216,-4.481412 0.07102,-9.905653 4.755859,-11.792969 0.24325,-0.098 0.503275,-0.202865 0.578125,-0.234375 0.962034,-0.404943 2.116015,-0.590386 3.3125,-0.572266 z"
       style="stroke-width:0.0659746;fill:#ffffff;fill-opacity:0.50290138"
       id="path7" /><path
       d="m 24.179687,1.7539062 c -2.595384,0 -3.06475,0.032165 -3.84375,0.2656251 C 17.845033,2.7660197 16.150391,4.9336848 16.150391,7.375 v 0.5410156 l -0.84375,0.4160157 C 14.841901,8.5600807 14.176528,8.9221392 13.830078,9.1367188 13.09991,9.5889478 13.176195,9.5693071 12.859375,9.3671875 11.496557,8.4977193 9.0860847,8.2423406 7.6796875,8.8183594 c -1.4375072,0.5887788 -2.2074316,1.162629 -2.96875,2.2109376 -0.1277598,0.17591 -0.2707063,0.392569 -0.3164063,0.480469 -0.04565,0.08796 -0.1118375,0.203059 -0.1484375,0.255859 -0.3245392,0.46801 -2.0437333,3.372796 -2.1582031,3.646484 -1.0715178,2.562046 0.038918,5.629187 2.4960938,6.896485 l 0.5097656,0.263672 0.00391,1.666015 0.00195,1.666016 -0.5136719,0.263672 c -2.457795,1.260976 -3.5721678,4.334853 -2.5,6.898437 0.1144698,0.27369 1.8336637,3.178465 2.1582031,3.646485 0.03659,0.05277 0.1046908,0.167859 0.1503906,0.255859 1.4654972,2.823654 5.7189948,3.892637 8.4804688,2.130859 0.29747,-0.189778 0.230005,-0.206976 0.939453,0.232422 0.33765,0.20912 0.992853,0.566292 1.457031,0.794922 l 0.84375,0.416016 0.04297,0.724609 c 0.16132,2.785864 2.1745,4.94874 4.990234,5.361328 0.26089,0.0382 0.489513,0.08436 0.507813,0.101563 0.07042,0.06625 5.218061,-0.01965 5.619141,-0.09375 2.856814,-0.52804 4.785775,-2.633809 4.916015,-5.365235 l 0.0332,-0.71875 0.837891,-0.410156 c 0.46004,-0.22575 1.118394,-0.586211 1.464844,-0.800781 0.727258,-0.45043 0.657348,-0.432136 0.955078,-0.242188 2.761465,1.761778 7.014981,0.692795 8.480469,-2.130859 0.04566,-0.08796 0.11379,-0.203059 0.15039,-0.255859 0.32454,-0.46802 2.043733,-3.372795 2.158203,-3.646485 1.070828,-2.560384 -0.04049,-5.630006 -2.496093,-6.896484 l -0.509766,-0.263672 -0.0039,-1.666016 -0.002,-1.667968 0.513671,-0.261719 c 2.455786,-1.259978 3.569355,-4.336892 2.498047,-6.898438 -0.1154,-0.275908 -1.850923,-3.208534 -2.158203,-3.646484 -0.03703,-0.05278 -0.10429,-0.169714 -0.15039,-0.257812 C 43.361144,10.356855 42.283685,9.475328 40.679687,8.8183594 39.273291,8.2423406 36.862828,8.4977193 35.5,9.3671875 35.18319,9.5693071 35.259475,9.5889478 34.529297,9.1367188 34.182847,8.9221392 33.52255,8.5616871 33.0625,8.3359375 l -0.835938,-0.4101563 -0.03516,-0.71875 C 32.05971,4.4448368 30.101235,2.3342565 27.207031,1.8359375 c -0.332678,-0.0573 -1.245116,-0.082031 -3.027344,-0.082031 z m -2.558593,4.4785157 h 2.558593 2.556641 l 0.28125,0.2089843 c 0.42458,0.3159094 0.522641,0.6522698 0.431641,1.4863282 -0.25275,2.3154656 0.02483,2.9032006 1.707031,3.6054686 0.13664,0.05701 0.268469,0.103516 0.292969,0.103516 0.09445,0 1.547393,0.648432 1.908203,0.851562 0.566788,0.3191 1.443742,0.894955 1.857422,1.220703 1.308786,1.030568 2.283394,1.066091 3.669922,0.132813 1.355577,-0.912448 1.57496,-1.000568 2.125,-0.861328 0.461058,0.11672 2.221884,2.602095 2.914062,4.113281 0.29732,0.649098 -0.06975,1.21522 -1.074219,1.65625 -1.408036,0.618238 -1.607441,0.724754 -1.894531,1.007812 -0.586778,0.57884 -0.742851,1.150619 -0.582031,2.128907 0.28066,1.707206 0.279192,2.997638 -0.002,4.708984 -0.15883,0.966948 0.0021,1.551302 0.583984,2.125 0.28709,0.28306 0.486495,0.387621 1.894531,1.005859 0.66092,0.29019 0.900612,0.476554 1.050782,0.814454 0.240748,0.541688 0.22393,0.581607 -1.148438,2.814453 -1.646686,2.679164 -1.741602,2.710033 -3.867187,1.279297 -1.371548,-0.923188 -2.384022,-0.894173 -3.63086,0.103515 -0.758508,0.60694 -1.823072,1.250721 -2.78125,1.681641 -0.522728,0.23509 -0.974137,0.419922 -1.023437,0.419922 -0.02446,0 -0.156329,0.04847 -0.292969,0.105468 -1.682236,0.70227 -1.959781,1.290005 -1.707031,3.605469 0.09103,0.833968 -0.0075,1.17039 -0.431641,1.486328 l -0.28125,0.208985 -2.486328,0.01172 c -2.687664,0.01308 -2.575368,0.02353 -2.941406,-0.246093 -0.39031,-0.28726 -0.487338,-0.64676 -0.398438,-1.460938 0.25102,-2.299574 -0.07584,-2.996234 -1.685547,-3.589844 -1.681096,-0.619928 -3.03414,-1.35351 -4.154296,-2.25 -1.129478,-0.903958 -2.277444,-0.982631 -3.34375,-0.232421 -1.622258,1.141336 -2.2398371,1.30797 -2.8593755,0.77539 -0.1892496,-0.16268 -2.2116623,-3.373207 -2.4199219,-3.841797 -0.2906294,-0.653948 0.033571,-1.222584 0.9179688,-1.615234 0.2474294,-0.10985 0.735245,-0.329911 1.0839844,-0.488281 1.4824766,-0.67326 1.8517142,-1.536131 1.4277343,-3.341797 -0.0506,-0.21559 -0.083984,-0.885778 -0.083984,-1.728516 0,-0.842748 0.033384,-1.510982 0.083984,-1.726562 0.4239799,-1.805676 0.054742,-2.670502 -1.4277343,-3.34375 C 8.1005264,19.009587 7.6126638,18.789527 7.3652344,18.679687 6.499826,18.295449 6.1529843,17.706398 6.4335937,17.09375 6.6605933,16.59816 8.643571,13.432629 8.8378906,13.255859 9.467529,12.683081 10.078865,12.840762 11.726563,14 c 1.066306,0.750208 2.214272,0.669583 3.34375,-0.234375 1.146666,-0.917708 2.43341,-1.613449 4.154296,-2.248047 1.609758,-0.593608 1.936567,-1.290268 1.685547,-3.5898436 -0.09104,-0.8340584 0.0054,-1.1704188 0.429688,-1.4863282 z"
       style="stroke-width:0.0659746"
       id="path6" /></g></svg>
