<?xml version="1.0" encoding="UTF-8"?>

<svg viewBox="0 0 110.69 110.69"
xmlns="http://www.w3.org/2000/svg"
width="64"
height="64"
>
  <g transform="rotate(-90 55.345 55.345)">
    <path fill="currentColor" d="M103.94,65.66h0s0,0,0,0h0c-6.55-4.56-15.21-10.96-22.78-16.65,0-.02,0-1.93,0-4.09h.06v-.63h-.06v-5.42c0-.81-.69-.75-.71-.75v-.3h0s3.25-.11,3.58-.13c.27-.02.27-.06.23-.11l-3.82-.13v-.57h0s3.73-.18,4.12-.2c.31-.03.31-.1.27-.17l-4.39-.2c.06-2.13-1.79-2.13-1.74,0h0l-4.39.2c-.06.11.03.15.27.17.39.03,4.12.2,4.12.2h0s0,0,0,0v.57h0l-3.82.13c-.05.08.04.09.23.11.34.02,3.58.13,3.58.13h0s0,0,0,0v.3c-.69,0-.64.5-.64.76-.04,1.65.09,6.32-.08,7.75-1.07-.81-2.12-1.6-3.14-2.38l.11.08h0s0,0,0,0v-.3c0-.46-.2-.5-.25-.42,0,0,0,.53,0,.53-.28-.21-.56-.43-.84-.64,0-.04,0-.18,0-.65,0-.69-.38-.69-.5-.67-.07-.05-.02.91-.03.92-1.47-1.12-2.87-2.19-4.2-3.2h0c0-2.14,0-7.76,0-9.05,0-.81-.68-.75-.71-.75v-.27s0,0,0,0c0,0,3.25-.11,3.58-.13.34-.02.23-.11.23-.11l-3.82-.13h0v-.57h0s3.73-.18,4.12-.2c.39-.03.27-.17.27-.17l-4.39-.2h0v-.1h0c-.02-2.11-1.82-1.91-1.74.1l-4.38.2s-.12.15.27.17c.39.03,4.11.2,4.12.2v.57l-3.82.13s-.11.09.23.11c.34.02,3.58.13,3.58.13v.28c-.85.08-.61.55-.63,2.74h0c-.02,1.28.06,4-.08,4.63-1.28-.98-2.44-1.88-3.46-2.66v-.26c0-.46-.2-.5-.25-.42,0,0,0,.48,0,.48-.35-.27-.68-.53-.99-.77h0s0,0,0,0v-.43c0-.54-.3-.54-.39-.53-.06-.02-.01.61-.03.63-1.45-1.11-2.31-1.81-2.68-2.07-.07-5.03,0-11.85-.35-17.22h0s0,0,0,0c0,0,0,0,0,0,0,0,0,0,0,0-.21-1.48-.53-3.32-1.96-4.1,0,0,0,0,0,0-.09-.04-.18-.08-.25-.1l-.06-4.36h0c-.16-.03-.07-.42-.09-.61h-.04v-.13c0-.13-.15-.13-.15,0v.13h-.04s0,0,0,0h0c-.02.18.07.57-.09.6h0s0,0,0,0l-.05,4.35c-1.65.61-2,2.66-2.23,4.22,0,0,0,0,0,0h0s0,0,0,0c-.04.43-.08.83-.1,1.27,0,0,0,0,0,0,0,0,0,0,0,0-.21,5.6-.26,15.7-.26,15.7v.24c-.37.26-1.23.95-2.68,2.06-.01-.01.03-.66-.03-.63-.09-.01-.39-.01-.39.53,0,0,0,.42,0,.42-.31.24-.65.5-1,.77,0-.01.02-.52-.02-.51-.05-.01-.23-.01-.23.45,0,0,0,.25,0,.26-1.09.84-2.32,1.79-3.46,2.66,0,0,0,0,0,0,0,0,0,0,0,0h0c-.16-1.24-.04-5.12-.08-6.62,0-.2.02-.42-.13-.59-.06-.09-.25-.14-.5-.16v-.27s3.25-.11,3.58-.13c.21-.01.24-.05.24-.08.02-.03-.01-.05-.01-.05l-3.82-.13v-.55s3.73-.18,4.12-.2c.22-.02.27-.07.28-.11.02-.04-.01-.08-.01-.08l-4.38-.2c.06-2.14-1.8-2.13-1.74,0h0l-4.39.2s-.03.04-.01.08c0,.04.06.1.28.11.39.03,4.09.2,4.12.2v.55h0l-3.82.13s-.03.02,0,.05c0,.03.03.07.24.08.34.02,3.56.13,3.58.13v.26s0,0,0,0c-1.03-.06-.64,1.39-.71,2.63,0,2.12,0,5.2,0,7.18-1.32,1.01-2.73,2.08-4.19,3.2v-.88s-.01-.04-.03-.04c-.12-.02-.5-.02-.5.67,0,.46,0,.61,0,.65-.26.2-.53.4-.8.61h0s0,0,0,0v-.54s0-.02-.02-.03c-.05-.01-.23-.01-.23.45,0,0,0,.3,0,.31-.38.29-.76.58-1.15.87h0s-.04.03-.04.03h0c-.62.47-1.24.94-1.87,1.42-.16-1.16-.04-4.25-.08-6.18,0-.64,0-1.2,0-1.56,0-.26.05-.76-.64-.76v-.3h0s3.25-.11,3.58-.13c.19-.02.28-.03.23-.11l-3.82-.13h0v-.57h0s3.73-.18,4.12-.2c.23-.02.32-.06.27-.17l-4.39-.2h0c.06-2.13-1.79-2.13-1.74,0l-4.39.2s-.03.04-.01.08c0,0,0,0,0,0,.07.09.22.08.34.1,1.05.06,4,.2,4.06.2v.57l-3.82.13c-.07.07.13.11.23.11.34.02,3.57.13,3.58.13v.29s-.71-.06-.71.75v5.42h0v.63h0v4.09c-7.8,5.86-16.19,12.06-22.79,16.65-.3.21-.47.55-.46.92,0,0,0,0,0,0l.18,4.46s.03.09.06.12c.05.05.13.07.2.03h.02c10.9-5.29,23.78-11.54,34.69-16.83,0,.02,0,.03,0,.03.13,4,.27,5.19,1.39,7.01.11.14.32.14.44,0,1.72-2.26,1.22-6.05,1.27-8.54h0s0,0,0,0l2.81-1.36s0,0,0,0h0s4.97-2.41,4.97-2.41h0s.18-.09.18-.09v17.86s.25,9.63,1.05,20.62c0,0,0,.04,0,.09l-12.52,11.61-.16.15s-.62.52-.62,1.27v2.97c0,.17.18.28.34.2l.44-.23,12.46-6.57.36-.19h0s0,1.6,0,1.6h.05s0,0,0,0v-1.23h.12c.02.32-.11.78.26.68h0s0,0,0,0v-.04c.03.49.4,1.19.7,1.32.07,2.25.06,4.47.21,6.61,0,0,0,.02,0,.02.05.12.23.13.28-.01.19-2.08.16-4.28.24-6.37,0,0,0,0,0,0,0-.08,0-.15,0-.23.29-.15.65-.75.7-1.29,0,0,.07.01.13,0,.01,0,.02,0,.03-.01,0,0,0,0,.01,0,.02-.01.04-.02.05-.04.02-.02.03-.05.03-.08,0-.11,0-.33,0-.55h.11v1.23h.05s0,0,0,0h0s0,0,0,0v-1.59c1.94,1.03,11.14,5.88,13.25,6.99.15.08.34-.03.34-.2v-2.97c0-.76-.62-1.27-.62-1.27l-.16-.14h0s0,0,0,0h0s-2.66-2.47-2.66-2.47h0s-9.85-9.14-9.85-9.14c0-.05,0-.09,0-.09.21-2.93.39-5.75.53-8.3h0s0,0,0,0h0c.17-3.1.31-6.21.43-9.3.39.04.37-1.4.35-1.68h-.26s0,0,0,0v.15h-.04c.01-.43.03-1.05.04-1.34v-18.02s.18.09.18.09h0s7.67,3.72,7.67,3.72l.11.05h0c.09,2.19-.56,6.02,1.27,8.54.45.38.7-.43.98-.96.43-.76.92-3.88.85-6.05,0,0,0-.02,0-.03,1.52.74,4.31,2.08,5.79,2.82h0s0,0,0,0h0s8.86,4.29,8.86,4.29l.07.03h0s.64.31.64.31h.02s0,.01,0,.01c3.95,1.91,15.21,7.37,19.32,9.37h0s0,0,0,0v-.08.1c.13.06.26-.02.27-.15l.17-4.38h0c.02-.36-.15-.7-.45-1.02Z"/></g></svg>